<svg id="Design_Layers" data-name="Design Layers" xmlns="http://www.w3.org/2000/svg" viewBox="0 0 400 400"><defs><style>.cls-1{fill:#005eb8;}.cls-2,.cls-3{fill:none;}.cls-2{stroke:#fff;stroke-linejoin:round;stroke-width:34.35px;}.cls-3,.cls-4{stroke:#00a0df;stroke-miterlimit:10;stroke-width:7.93px;}.cls-4{fill:#fff;}</style></defs><title>2018-GE-Iconography-web</title><path class="cls-1" d="M200.27,315.39V289c39.86,0,74.59-21.12,96.71-38.83,24.42-19.56,39.35-39.59,43.07-47-3.73-7.39-18.65-27.42-43.07-47-22-17.61-56.43-38.57-96-38.83h-.72c-39.86,0-74.59,21.12-96.71,38.83-24.42,19.56-39.35,39.59-43.07,47,3.73,7.39,18.65,27.41,43.07,47C125.68,267.85,160.41,289,200.26,289v26.43c-49.36,0-90.89-26-117-47.75a244.9,244.9,0,0,1-34.84-35.42c-14.89-18.95-14.89-26.29-14.89-29.06s0-10.11,14.89-29.06a244.92,244.92,0,0,1,34.84-35.42c25-20.79,63.92-45.38,110.32-47.59l.12-.16h6.61c49.36,0,90.89,26,117,47.75a244.9,244.9,0,0,1,34.84,35.42C367,193,367,200.39,367,203.16s0,10.11-14.89,29.06a244.9,244.9,0,0,1-34.84,35.42C291.16,289.42,249.62,315.39,200.27,315.39ZM59.7,205Zm281.13,0ZM59.7,201.32m281.13,0Z"/><path class="cls-2" d="M200.27,289c39.86,0,74.59-21.12,96.71-38.83,24.42-19.56,39.35-39.59,43.07-47-3.73-7.39-18.65-27.42-43.07-47-22-17.61-56.43-38.57-96-38.83h-.72c-39.86,0-74.59,21.12-96.71,38.83-24.42,19.56-39.35,39.59-43.07,47,3.73,7.39,18.65,27.41,43.07,47C125.67,267.84,160.41,289,200.26,289"/><circle class="cls-3" cx="199.82" cy="204.26" r="86.51"/><circle class="cls-4" cx="168.97" cy="175.28" r="24.34"/></svg>