<svg id="Design_Layers" data-name="Design Layers" xmlns="http://www.w3.org/2000/svg" viewBox="0 0 400 400"><defs><style>.cls-1,.cls-3,.cls-4{fill:none;stroke-linecap:round;stroke-linejoin:round;stroke-width:7.61px;}.cls-1{stroke:#005eb8;}.cls-2{fill:#00b5e2;}.cls-3,.cls-4{stroke:#00b5e2;}.cls-4{stroke-dasharray:0 22.18;}</style></defs><title>2018-GE-Iconography-web</title><circle class="cls-1" cx="200.28" cy="201.51" r="163"/><circle class="cls-1" cx="200.28" cy="201.51" r="19.58"/><circle class="cls-2" cx="200.28" cy="201.51" r="8.92"/><path class="cls-3" d="M201.44,283.22a83.2,83.2,0,0,1-22-163.43"/><line class="cls-3" x1="282.31" y1="219.62" x2="282.31" y2="219.62"/><path class="cls-4" d="M274.29,240.23a83.24,83.24,0,0,1-61.78,42.26"/><line class="cls-3" x1="201.44" y1="283.22" x2="201.44" y2="283.22"/><circle class="cls-2" cx="200.28" cy="60.43" r="4.1"/><circle class="cls-2" cx="300.04" cy="101.75" r="4.1" transform="translate(15.93 241.96) rotate(-45)"/><circle class="cls-2" cx="300.04" cy="301.27" r="4.1" transform="translate(-125.15 300.4) rotate(-45)"/><circle class="cls-2" cx="200.28" cy="342.59" r="4.1"/><circle class="cls-2" cx="100.52" cy="301.27" r="4.1" transform="translate(-183.59 159.32) rotate(-45)"/><circle class="cls-2" cx="59.2" cy="201.51" r="4.1"/><circle class="cls-2" cx="100.52" cy="101.75" r="4.1" transform="translate(-42.51 100.88) rotate(-45)"/><line class="cls-3" x1="200.28" y1="166.17" x2="200.28" y2="84.24"/><line class="cls-3" x1="237.28" y1="201.51" x2="287.49" y2="201.51"/></svg>