<svg id="Design_Layers" data-name="Design Layers" xmlns="http://www.w3.org/2000/svg" viewBox="0 0 400 400"><defs><style>.cls-1{fill:#005eb8;}.cls-2{fill:#00b5e2;}</style></defs><title>2018-GE-Iconography-web</title><path class="cls-1" d="M253,178.8l-29.62-29a13.73,13.73,0,0,0-1.86-1.51L220,147.26l-21.71,21.22,1.16,1.62a13.5,13.5,0,0,0,1.54,1.82l29.62,29a14.11,14.11,0,0,0,19.61,0l2.82-2.75a13.49,13.49,0,0,0,0-19.32Zm-3.24,16L247,197.56a9.44,9.44,0,0,1-13.12,0L204.5,168.88l.25-.24,15.62-15.27,29.41,28.75a8.85,8.85,0,0,1,0,12.69Z"/><path class="cls-1" d="M179.12,135.41,158.8,115.27H155L138,96l8.89-8.69,19.74,16.64-.18,2.4,21,20.85Zm-22-24.79h3.58l18.43,18.26,1.78-1.74-19.22-19,.16-2.17-14.71-12.4-2.72,2.66Z"/><path class="cls-1" d="M153.64,199.86a12.51,12.51,0,0,1-8.77-3.55l-1.23-1.2a12.07,12.07,0,0,1,0-17.29l61-59.65a29.94,29.94,0,0,1,7.45-31.37,31.74,31.74,0,0,1,36.72-5.23l2.81,1.49-21.26,20.79a5.58,5.58,0,0,0,0,8,6,6,0,0,0,8.33,0l21.16-20.69,1.48,2.66a30.12,30.12,0,0,1-5.35,36,31.37,31.37,0,0,1-32.76,7L162.4,196.31A12.51,12.51,0,0,1,153.64,199.86ZM234.1,82.59a26.85,26.85,0,0,0-18.76,7.54,25.32,25.32,0,0,0-5.84,27.77l.59,1.45-63.21,61.8a7.43,7.43,0,0,0,0,10.66l1.23,1.2a8,8,0,0,0,11,0l63-61.59,1.42.6a26.77,26.77,0,0,0,29.17-5.46h0a25.51,25.51,0,0,0,5.87-27.67l-16.67,16.3a10.66,10.66,0,0,1-14.82,0,10.22,10.22,0,0,1,0-14.64l16.57-16.2A26.93,26.93,0,0,0,234.1,82.59Z"/><path class="cls-2" d="M199,42a96,96,0,0,0-84.84,140.82c10.59,17.82,38.17,67.08,38.6,80.73l.21,38.54a26,26,0,0,0,25.23,26v5.39a19.41,19.41,0,0,0,19.39,19.39h2.81a19.41,19.41,0,0,0,19.39-19.39v-5.39a26,26,0,0,0,25.23-26V265.47c1.43-23.3,37.08-79.61,37.45-80.18l.07-.12A96,96,0,0,0,199,42Zm40.48,259.68h-81l-.08-13.8h81Zm-39.08,45.66h-2.81a13.86,13.86,0,0,1-13.85-13.85v-5.09h30.5v5.09A13.86,13.86,0,0,1,200.45,347.33Zm22.62-25.17H175a20.52,20.52,0,0,1-15.6-14.25h79.25A20.52,20.52,0,0,1,223.07,322.15Zm54.73-139.78c-2,3.12-36.84,58.34-38.27,82.85v16.41H158.45l-.1-18.19c-.56-17.94-37.79-80.79-39.31-83.34a90.42,90.42,0,1,1,158.75,2.27Z"/></svg>