<svg id="Design_Layers" data-name="Design Layers" xmlns="http://www.w3.org/2000/svg" viewBox="0 0 400 400"><defs><style>.cls-1{fill:#00b5e2;}.cls-2{fill:#005eb8;}</style></defs><title>2018-GE-Iconography-web</title><path class="cls-1" d="M200.43,136.62a2.92,2.92,0,0,1-2.92-2.92v-5.6a2.92,2.92,0,1,1,5.83,0v5.6A2.92,2.92,0,0,1,200.43,136.62Z"/><path class="cls-1" d="M200.43,274.83a2.92,2.92,0,0,1-2.92-2.92v-5.6a2.92,2.92,0,0,1,5.83,0v5.6A2.92,2.92,0,0,1,200.43,274.83Z"/><path class="cls-1" d="M134.13,202.92h-5.6a2.92,2.92,0,0,1,0-5.83h5.6a2.92,2.92,0,0,1,0,5.83Z"/><path class="cls-1" d="M272.33,202.92h-5.6a2.92,2.92,0,0,1,0-5.83h5.6a2.92,2.92,0,0,1,0,5.83Z"/><path class="cls-1" d="M154.35,155.16a2.91,2.91,0,0,1-2.06-.85l-21.78-21.78a2.92,2.92,0,0,1,4.12-4.12l21.78,21.78a2.92,2.92,0,0,1-2.06,5Z"/><path class="cls-1" d="M271.8,272.61a2.91,2.91,0,0,1-2.06-.85L248,250a2.92,2.92,0,0,1,4.12-4.12l21.78,21.78a2.92,2.92,0,0,1-2.06,5Z"/><path class="cls-1" d="M250,155.16a2.92,2.92,0,0,1-2.06-5l21.78-21.78a2.92,2.92,0,1,1,4.12,4.12L252.08,154.3A2.91,2.91,0,0,1,250,155.16Z"/><path class="cls-1" d="M132.57,272.61a2.92,2.92,0,0,1-2.06-5l21.78-21.78a2.92,2.92,0,0,1,4.12,4.12l-21.78,21.78A2.91,2.91,0,0,1,132.57,272.61Z"/><path class="cls-2" d="M200.43,258.63a58.42,58.42,0,1,1,58.42-58.42A58.49,58.49,0,0,1,200.43,258.63Zm0-108.58a50.16,50.16,0,1,0,50.16,50.16A50.21,50.21,0,0,0,200.43,150Z"/><path class="cls-2" d="M199.71,120.83a44.48,44.48,0,1,1,44.48-44.48A44.53,44.53,0,0,1,199.71,120.83Zm0-80.7a36.22,36.22,0,1,0,36.22,36.22A36.26,36.26,0,0,0,199.71,40.12Z"/><path class="cls-2" d="M199.71,368.55a44.48,44.48,0,1,1,44.48-44.48A44.53,44.53,0,0,1,199.71,368.55Zm0-80.7a36.22,36.22,0,1,0,36.22,36.22A36.26,36.26,0,0,0,199.71,287.85Z"/><path class="cls-2" d="M75.85,244.69a44.48,44.48,0,1,1,44.48-44.48A44.53,44.53,0,0,1,75.85,244.69Zm0-80.7a36.22,36.22,0,1,0,36.22,36.22A36.26,36.26,0,0,0,75.85,164Z"/><path class="cls-2" d="M323.57,244.69a44.48,44.48,0,1,1,44.48-44.48A44.53,44.53,0,0,1,323.57,244.69Zm0-80.7a36.22,36.22,0,1,0,36.22,36.22A36.26,36.26,0,0,0,323.57,164Z"/><path class="cls-1" d="M100.55,330a30.64,30.64,0,1,1,21.66-52.3,2.92,2.92,0,1,1-4.12,4.12,24.8,24.8,0,1,0,0,35.08,2.92,2.92,0,1,1,4.12,4.12A30.43,30.43,0,0,1,100.55,330Z"/><path class="cls-1" d="M299.23,131.3a30.54,30.54,0,0,1-21.66-9,2.92,2.92,0,1,1,4.12-4.12,24.8,24.8,0,1,0,0-35.08A2.92,2.92,0,1,1,277.57,79a30.63,30.63,0,1,1,21.66,52.28Z"/><path class="cls-1" d="M299.59,330.72a30.64,30.64,0,0,1-21.66-52.3,2.92,2.92,0,0,1,4.12,4.12,24.8,24.8,0,1,0,35.08,0,2.92,2.92,0,0,1,4.12-4.12,30.64,30.64,0,0,1-21.66,52.3Z"/><path class="cls-1" d="M120.15,123.56a2.92,2.92,0,0,1-2.06-5,24.8,24.8,0,1,0-35.08,0,2.92,2.92,0,0,1-4.12,4.12,30.63,30.63,0,1,1,43.32,0A2.91,2.91,0,0,1,120.15,123.56Z"/></svg>