<svg id="Design_Layers" data-name="Design Layers" xmlns="http://www.w3.org/2000/svg" viewBox="0 0 400 400"><defs><style>.cls-1{fill:#005eb8;}.cls-2{fill:#00b5e2;}</style></defs><title>2018-GE-Iconography-web-cost</title><path class="cls-1" d="M199.77,365.81c-17,0-20.43-8.39-20.43-21.93v-10.2c-25.36-3.64-44.83-15.62-56.93-25.3-7.13-5.54-10.77-12.34-10.77-20.16,0-10.72,10.29-23.81,22.31-23.81,8.72,0,13.47,3.49,19,7.52l.7.52c4.74,3.63,15.3,9.75,25.72,13.56V216.49c-33.66-9.92-66.94-27.13-66.94-75.32,0-37.71,26.73-67.71,66.94-75.7V57.31c0-10,3.61-21.93,20.8-21.93,13.56,0,20.43,7.38,20.43,21.93v7.56c26.09,3.71,43.21,15.62,53.12,25.21,4.19,4.19,8.93,10,8.93,18.37,0,13-13.42,25.69-23.44,25.69-8.71,0-12.26-3.22-18.72-9.07l-1.68-1.52a53.13,53.13,0,0,0-18.22-10.3v64.42c32.74,10.8,68.82,29.74,68.82,77.83,0,40.56-28.69,72.83-68.82,78.24v10.14C220.58,363.32,209.46,365.81,199.77,365.81ZM134,273.67c-6.95,0-13,9.07-13,14.55,0,3.12.75,7.85,7.24,12.89,11.83,9.46,31.14,21.24,56.3,23.87a4.63,4.63,0,0,1,4.15,4.61v14.29c0,10.89,1.57,12.67,11.17,12.67,9.28,0,11.54-2.49,11.54-12.67V329.59a4.63,4.63,0,0,1,4.23-4.61c18.09-1.55,34.51-9.29,46.24-21.78s18.35-29.54,18.35-47.7c0-34.54-19.62-55.49-65.59-70a4.63,4.63,0,0,1-3.23-4.41V107.33a4.63,4.63,0,0,1,5.44-4.56c14,2.5,24.37,10.52,28.18,13.86l1.75,1.58c6.19,5.62,7.52,6.67,12.5,6.67s14.18-8.7,14.18-16.43c0-4-1.79-7.39-6.17-11.77-9.33-9-25.93-20.42-51.74-23.11A4.63,4.63,0,0,1,211.32,69V57.31c0-10.65-3.93-12.67-11.17-12.67-8.52,0-11.54,3.32-11.54,12.67v12a4.63,4.63,0,0,1-3.9,4.57c-37.71,6-63,33.06-63,67.26,0,19.63,6,34.59,18.4,45.73,10,9,23.92,15.67,45.16,21.64A4.63,4.63,0,0,1,188.6,213v79.35a4.63,4.63,0,0,1-5.85,4.47c-13.42-3.66-28.36-12.12-34.69-17l-.64-.46C142.41,275.71,139.64,273.67,134,273.67Zm82,23.32a4.63,4.63,0,0,1-4.63-4.63V223.54a4.63,4.63,0,0,1,6.44-4.26c9.71,4.13,16.21,8.22,21.08,13.27,6.35,6.59,9.57,14.82,9.57,24.46,0,20.71-12.09,36-31.55,39.89A4.61,4.61,0,0,1,215.95,297Zm4.63-66.17v55.41c11.74-4.49,18.57-15.05,18.57-29.22C239.15,245.54,233.67,237.65,220.58,230.82ZM184,174.77a4.62,4.62,0,0,1-1.54-.26c-12.14-4.27-28.29-12.49-28.29-34.45,0-19.2,11.36-33.82,28.93-37.26a4.63,4.63,0,0,1,5.52,4.54v62.81a4.63,4.63,0,0,1-4.63,4.63Zm-4.63-61.19c-8.43,3.62-15.93,11.93-15.93,26.47,0,10.76,4.84,17.95,15.93,23.21Z"/><path class="cls-2" d="M139.88,124A3,3,0,0,1,137,120c10.52-31.35,42.71-35.48,44.08-35.64a3,3,0,0,1,.7,5.95h0c-1.21.15-29.82,3.91-39.11,31.6A3,3,0,0,1,139.88,124Z"/><path class="cls-2" d="M183.86,197.23a3,3,0,0,1-.64-.07c-37.48-8.21-44.05-32.74-44.31-33.78a3,3,0,0,1,5.81-1.47c.24.92,6.15,22,39.79,29.41a3,3,0,0,1-.64,5.92Z"/><path class="cls-2" d="M221.41,310.45a3,3,0,0,1-.35-6h0c1.21-.15,29.82-3.91,39.11-31.6a3,3,0,1,1,5.68,1.91c-10.52,31.35-42.71,35.48-44.08,35.64Z"/><path class="cls-2" d="M261.08,235.18a3,3,0,0,1-2.9-2.25c-.24-.91-6.15-22-39.79-29.41a3,3,0,1,1,1.28-5.85c37.48,8.21,44.05,32.74,44.31,33.78a3,3,0,0,1-2.91,3.73Z"/><circle class="cls-2" cx="264.61" cy="253.53" r="5.01"/><circle class="cls-2" cx="138.32" cy="141.82" r="5.01"/></svg>